<svg width="223" height="117" viewBox="0 0 223 117" fill="none" xmlns="http://www.w3.org/2000/svg">
<g clip-path="url(#clip0)">
<path d="M173.3 26.8V41.6L122.2 68.4V50.9L154.7 34.2L122.3 17.4V17.2L98.2001 66.7L97.6001 68L91.5001 64.9L47.1001 41.5V26.8L98.2001 0V17.5L65.7001 34.2L98.2001 51V51.2L122.2 1.8L122.9 0.4L129 3.6L173.3 26.8Z" fill="black"/>
<path d="M8.2 114.4C5.7 113 3.7 111 2.2 108.6C0.7 106.1 0 103.3 0 100.2C0 97.0999 0.7 94.2999 2.2 91.7999C3.6 89.2999 5.7 87.3999 8.2 85.9999C10.8 84.5999 13.6 83.8999 16.8 83.8999C19.2 83.8999 21.4 84.2999 23.4 85.0999C25.4 85.8999 27.1 87.0999 28.5 88.5999L26.3 90.7999C23.8 88.2999 20.6 86.9999 16.8 86.9999C14.3 86.9999 12 87.5999 9.9 88.6999C7.8 89.8999 6.2 91.3999 5 93.4999C3.8 95.4999 3.2 97.7999 3.2 100.3C3.2 102.8 3.8 105.1 5 107.1C6.2 109.1 7.8 110.7 9.9 111.9C12 113.1 14.3 113.6 16.8 113.6C20.6 113.6 23.8 112.3 26.3 109.8L28.5 112C27.1 113.5 25.4 114.7 23.3 115.5C21.3 116.3 19.1 116.7 16.7 116.7C13.6 116.5 10.7 115.8 8.2 114.4Z" fill="black"/>
<path d="M50.4 94.2997C52.1 95.8997 52.9 98.1997 52.9 101.3V116.2H49.7999V112.4C49.0999 113.7 47.9999 114.6 46.5999 115.3C45.1999 116 43.5 116.4 41.5 116.4C38.8 116.4 36.6999 115.8 35.0999 114.5C33.4999 113.2 32.7 111.5 32.7 109.4C32.7 107.4 33.4 105.7 34.9 104.5C36.4 103.2 38.7 102.6 42 102.6H49.5999V101.1C49.5999 98.9997 49 97.3997 47.9 96.3997C46.7 95.2997 44.9999 94.7997 42.7999 94.7997C41.2999 94.7997 39.8 95.0997 38.4 95.5997C37 96.0997 35.7999 96.7997 34.7999 97.6997L33.2999 95.2997C34.4999 94.2997 36 93.4997 37.7 92.8997C39.4 92.2997 41.1999 92.0997 43.0999 92.0997C46.2999 91.9997 48.7 92.7997 50.4 94.2997ZM46.7 112.6C48 111.8 48.9999 110.5 49.5999 109V105.1H42C37.9 105.1 35.7999 106.5 35.7999 109.4C35.7999 110.8 36.3 111.9 37.4 112.7C38.5 113.5 40 113.9 41.9 113.9C43.8 113.9 45.4 113.5 46.7 112.6Z" fill="black"/>
<path d="M62.5999 115.6C60.7999 115 59.3999 114.3 58.3999 113.5L59.8999 110.9C60.8999 111.7 62.1999 112.3 63.6999 112.8C65.1999 113.3 66.7999 113.6 68.4999 113.6C70.6999 113.6 72.2999 113.3 73.3999 112.6C74.4999 111.9 74.9999 110.9 74.9999 109.7C74.9999 108.8 74.6999 108.1 74.0999 107.6C73.4999 107.1 72.7999 106.7 71.8999 106.5C70.9999 106.2 69.7999 106 68.3999 105.7C66.3999 105.3 64.8999 105 63.6999 104.6C62.4999 104.2 61.4999 103.6 60.6999 102.7C59.8999 101.8 59.3999 100.5 59.3999 98.8996C59.3999 96.8996 60.1999 95.1996 61.8999 93.9996C63.5999 92.6996 65.8999 92.0996 68.8999 92.0996C70.4999 92.0996 71.9999 92.2996 73.5999 92.6996C75.1999 93.0996 76.3999 93.6996 77.3999 94.2996L75.9999 96.8996C73.9999 95.4996 71.5999 94.7996 68.8999 94.7996C66.7999 94.7996 65.2999 95.1996 64.1999 95.8996C63.0999 96.5996 62.5999 97.5996 62.5999 98.7996C62.5999 99.6996 62.8999 100.4 63.4999 101C64.0999 101.5 64.7999 102 65.6999 102.2C66.5999 102.5 67.7999 102.7 69.3999 103C71.2999 103.4 72.8999 103.7 73.9999 104.1C75.1999 104.5 76.1999 105.1 76.9999 106C77.7999 106.9 78.1999 108.1 78.1999 109.7C78.1999 111.8 77.2999 113.5 75.5999 114.7C73.7999 115.9 71.3999 116.6 68.2999 116.6C66.1999 116.5 64.3999 116.2 62.5999 115.6Z" fill="black"/>
<path d="M99.8001 94.2997C101.5 95.8997 102.3 98.1997 102.3 101.3V116.2H99.2001V112.4C98.5001 113.7 97.4001 114.6 96.0001 115.3C94.6001 116 92.9001 116.4 90.9001 116.4C88.2001 116.4 86.1001 115.8 84.5001 114.5C82.9001 113.2 82.1001 111.5 82.1001 109.4C82.1001 107.4 82.8001 105.7 84.3001 104.5C85.8001 103.2 88.1001 102.6 91.4001 102.6H99.0001V101.1C99.0001 98.9997 98.4001 97.3997 97.3001 96.3997C96.1001 95.2997 94.4001 94.7997 92.2001 94.7997C90.7001 94.7997 89.2001 95.0997 87.8001 95.5997C86.4001 96.0997 85.2001 96.7997 84.2001 97.6997L82.7001 95.2997C83.9001 94.2997 85.4001 93.4997 87.1001 92.8997C88.8001 92.2997 90.6001 92.0997 92.5001 92.0997C95.7001 91.9997 98.1001 92.7997 99.8001 94.2997ZM96.1001 112.6C97.4001 111.8 98.4001 110.5 99.0001 109V105.1H91.4001C87.3001 105.1 85.2001 106.5 85.2001 109.4C85.2001 110.8 85.7001 111.9 86.8001 112.7C87.9001 113.5 89.4001 113.9 91.3001 113.9C93.2001 113.9 94.8001 113.5 96.1001 112.6Z" fill="black"/>
<path d="M111.2 82.2998H114.5V116.3H111.2V82.2998Z" fill="black"/>
<path d="M122.1 84.1997H137.3C140.8 84.1997 143.9 84.8997 146.6 86.1997C149.3 87.4997 151.4 89.3997 152.9 91.7997C154.4 94.1997 155.1 96.9997 155.1 100.3C155.1 103.5 154.4 106.4 152.9 108.8C151.4 111.2 149.3 113.1 146.6 114.4C143.9 115.7 140.8 116.4 137.3 116.4H122.1V84.1997ZM136.9 109C139.6 109 141.9 108.2 143.5 106.7C145.2 105.1 146 103 146 100.2C146 97.4997 145.2 95.2997 143.5 93.6997C141.8 92.0997 139.6 91.3997 136.9 91.3997H131.2V109H136.9Z" fill="black"/>
<path d="M185.7 109.2V116.2H160V84.1997H185.1V91.1997H169V96.5997H183.2V103.4H169V109.3H185.7V109.2Z" fill="black"/>
<path d="M222.8 84.1997L209.1 116.3H200.2L186.5 84.1997H196.3L205 105.1L213.9 84.1997H222.8Z" fill="black"/>
</g>
<defs>
<clipPath id="clip0">
<rect width="222.8" height="116.5" fill="white"/>
</clipPath>
</defs>
</svg>
