<svg width="639" height="132" viewBox="0 0 639 132" fill="none" xmlns="http://www.w3.org/2000/svg">
<g clip-path="url(#clip0)">
<path d="M62.1 0C27.8 0 0 27.8 0 62C0 96.3 27.8 124 62.1 124C64.6 124 67.1 123.9 69.6 123.6C68.5 123.4 25.7 115.3 49.8 40.1C49.8 40.1 67.3 42.1 82.7 40.9C82.7 40.9 48.7 116.5 69.6 123.6C100.3 119.9 124.1 93.7 124.1 62C124.1 27.8 96.3 0 62.1 0ZM67.6 37.8C59.3 37.8 52.5 32.4 52.5 25.7C52.5 19 59.3 13.6 67.6 13.6C75.9 13.6 82.7 19 82.7 25.7C82.6 32.3 75.9 37.8 67.6 37.8Z" fill="white"/>
<path d="M178.3 0.899902H185.1V72.4999H178.3V0.899902Z" fill="white"/>
<path d="M199.7 21.8996H206.2V30.9996C208.8 27.4996 211.7 24.8996 214.8 23.1996C218 21.4996 221.4 20.5996 225.1 20.5996C228.9 20.5996 232.2 21.5996 235.2 23.4996C238.1 25.3996 240.3 27.9996 241.7 31.2996C243.1 34.5996 243.8 39.5996 243.8 46.4996V72.4996H237.3V48.2996C237.3 42.4996 237.1 38.5996 236.6 36.5996C235.8 33.2996 234.4 30.6996 232.3 29.0996C230.2 27.3996 227.4 26.5996 223.9 26.5996C220 26.5996 216.4 27.8996 213.3 30.4996C210.2 33.0996 208.1 36.2996 207.1 40.1996C206.5 42.6996 206.2 47.2996 206.2 53.9996V72.4996H199.7V21.8996Z" fill="white"/>
<path d="M278.5 2.09977V8.49977C276.1 7.49977 274.1 6.99977 272.4 6.99977C271.1 6.99977 270.1 7.29977 269.2 7.79977C268.4 8.29977 267.8 8.89977 267.6 9.59977C267.4 10.2998 267.3 12.2998 267.3 15.1998V21.9998H277.8V27.5998H267.2V72.4998H260.7V27.4998H254.1V21.8998H260.7V13.9998C260.7 10.3998 261 7.49977 261.7 5.99977C262.4 4.49977 263.5 3.19977 265.1 2.29977C266.7 1.39977 268.6 0.899766 270.9 0.899766C273 0.799766 275.6 1.19977 278.5 2.09977Z" fill="white"/>
<path d="M311.5 20.5996C319.3 20.5996 325.7 23.3996 330.9 29.0996C335.5 34.1996 337.9 40.2996 337.9 47.2996C337.9 54.3996 335.4 60.4996 330.5 65.7996C325.6 71.0996 319.3 73.6996 311.5 73.6996C303.8 73.6996 297.4 71.0996 292.5 65.7996C287.6 60.4996 285.1 54.2996 285.1 47.2996C285.1 40.2996 287.4 34.1996 292.1 29.0996C297.2 23.3996 303.7 20.5996 311.5 20.5996ZM311.5 26.9996C306.1 26.9996 301.4 28.9996 297.6 32.9996C293.7 36.9996 291.8 41.7996 291.8 47.4996C291.8 51.1996 292.7 54.5996 294.5 57.6996C296.3 60.8996 298.7 63.2996 301.7 64.9996C304.7 66.6996 308 67.5996 311.6 67.5996C315.2 67.5996 318.5 66.6996 321.5 64.9996C324.5 63.2996 326.9 60.7996 328.7 57.6996C330.5 54.4996 331.4 51.0996 331.4 47.4996C331.4 41.7996 329.4 36.9996 325.5 32.9996C321.5 28.9996 316.8 26.9996 311.5 26.9996Z" fill="white"/>
<path d="M347.4 21.8996H354V29.2996C356 26.3996 358.1 24.1996 360.3 22.7996C362.5 21.3996 364.8 20.5996 367.2 20.5996C369 20.5996 370.9 21.1996 373 22.2996L369.6 27.7996C368.2 27.1996 367.1 26.8996 366.2 26.8996C364 26.8996 361.9 27.7996 359.9 29.5996C357.9 31.3996 356.4 34.0996 355.3 37.8996C354.5 40.7996 354.1 46.5996 354.1 55.3996V72.4996H347.5V21.8996H347.4Z" fill="white"/>
<path d="M378.4 21.8999H384.9V30.5999C387.2 27.3999 389.5 24.9999 391.9 23.4999C395.2 21.4999 398.6 20.4999 402.3 20.4999C404.7 20.4999 407.1 20.9999 409.3 21.8999C411.5 22.8999 413.3 24.0999 414.7 25.6999C416.1 27.2999 417.3 29.5999 418.3 32.4999C420.5 28.4999 423.2 25.4999 426.4 23.4999C429.6 21.3999 433.1 20.3999 436.9 20.3999C440.4 20.3999 443.5 21.2999 446.1 23.0999C448.8 24.8999 450.8 27.2999 452.1 30.4999C453.4 33.6999 454.1 38.3999 454.1 44.6999V72.2999H447.5V44.7999C447.5 39.3999 447.1 35.6999 446.3 33.5999C445.5 31.5999 444.2 29.8999 442.3 28.6999C440.4 27.4999 438.2 26.7999 435.6 26.7999C432.4 26.7999 429.6 27.6999 427 29.5999C424.4 31.4999 422.5 33.8999 421.3 36.9999C420.1 40.0999 419.5 45.2999 419.5 52.4999V72.2999H413V46.5999C413 40.4999 412.6 36.3999 411.9 34.1999C411.1 31.9999 409.8 30.2999 407.9 28.9999C406 27.6999 403.8 26.9999 401.2 26.9999C398.2 26.9999 395.4 27.8999 392.8 29.6999C390.2 31.4999 388.3 33.9999 387 36.9999C385.7 40.0999 385.1 44.7999 385.1 51.0999V72.4999H378.6V21.8999H378.4Z" fill="white"/>
<path d="M518.1 21.9V72.4H511.7V63.7C509 67 505.9 69.5 502.5 71.2C499.1 72.9 495.4 73.7 491.4 73.7C484.2 73.7 478.1 71.1 473.1 65.9C468 60.7 465.5 54.4 465.5 47C465.5 39.7 468 33.5 473.2 28.3C478.3 23.1 484.5 20.5 491.6 20.5C495.8 20.5 499.5 21.4 502.9 23.2C506.3 25 509.2 27.6 511.7 31.1V21.8H518.1V21.9ZM492.1 26.9C488.5 26.9 485.1 27.8 482.1 29.6C479 31.4 476.6 33.9 474.8 37.1C473 40.3 472.1 43.7 472.1 47.3C472.1 50.9 473 54.3 474.8 57.5C476.6 60.7 479.1 63.3 482.2 65.1C485.3 66.9 488.6 67.8 492.1 67.8C495.7 67.8 499 66.9 502.2 65.1C505.4 63.3 507.8 60.9 509.6 57.8C511.3 54.7 512.2 51.3 512.2 47.5C512.2 41.7 510.3 36.8 506.4 32.8C502.4 28.8 497.7 26.9 492.1 26.9Z" fill="white"/>
<path d="M581.7 32.3997L576.6 35.5997C572.1 29.6997 566.1 26.6997 558.4 26.6997C552.2 26.6997 547.1 28.6997 543.1 32.5997C539 36.5997 537 41.3997 537 46.9997C537 50.6997 537.9 54.0997 539.8 57.3997C541.7 60.6997 544.2 63.1997 547.5 64.9997C550.8 66.7997 554.4 67.6997 558.5 67.6997C565.9 67.6997 572 64.6997 576.7 58.7997L581.8 62.1997C579.4 65.7997 576.1 68.6997 572.1 70.6997C568 72.6997 563.4 73.6997 558.2 73.6997C550.2 73.6997 543.6 71.1997 538.3 66.0997C533 60.9997 530.4 54.7997 530.4 47.5997C530.4 42.6997 531.6 38.1997 534.1 33.9997C536.6 29.7997 539.9 26.4997 544.2 24.1997C548.5 21.7997 553.3 20.6997 558.7 20.6997C562 20.6997 565.3 21.1997 568.4 22.1997C571.5 23.1997 574.2 24.5997 576.3 26.1997C578.4 27.7997 580.2 29.8997 581.7 32.3997Z" fill="white"/>
<path d="M594.2 0.799805H600.7V30.9998C603.3 27.4998 606.2 24.8998 609.4 23.1998C612.6 21.4998 616 20.5998 619.7 20.5998C623.5 20.5998 626.8 21.5998 629.7 23.4998C632.6 25.3998 634.8 27.9998 636.2 31.1998C637.6 34.3998 638.3 39.4998 638.3 46.3998V72.3998H631.8V48.2998C631.8 42.4998 631.6 38.5998 631.1 36.5998C630.3 33.2998 628.8 30.6998 626.7 29.0998C624.6 27.3998 621.8 26.5998 618.4 26.5998C614.5 26.5998 610.9 27.8998 607.8 30.4998C604.7 33.0998 602.6 36.2998 601.6 40.1998C601 42.6998 600.7 47.2998 600.7 53.9998V72.4998H594.2V0.799805Z" fill="white"/>
<path d="M178.3 102.9H180.9V106.6C181.9 105.2 183.1 104.2 184.4 103.5C185.7 102.8 187 102.5 188.5 102.5C190 102.5 191.3 102.9 192.5 103.6C193.7 104.4 194.5 105.4 195.1 106.7C195.7 108 195.9 110 195.9 112.8V123.7H193.3V113.5C193.3 111.2 193.2 109.6 193 108.8C192.7 107.5 192.1 106.4 191.3 105.8C190.5 105.2 189.3 104.8 188 104.8C186.4 104.8 185 105.3 183.8 106.4C182.6 107.4 181.7 108.7 181.3 110.3C181.1 111.3 180.9 113.1 180.9 115.8V123.7H178.3V102.9Z" fill="white"/>
<path d="M200.8 102.9H203.4V112.4C203.4 114.7 203.5 116.3 203.8 117.2C204.2 118.4 204.9 119.4 205.9 120.1C206.9 120.8 208.2 121.2 209.7 121.2C211.1 121.2 212.4 120.8 213.4 120.1C214.4 119.4 215.1 118.5 215.5 117.3C215.8 116.5 215.9 114.9 215.9 112.3V102.8H218.6V112.8C218.6 115.6 218.3 117.7 217.6 119.1C217 120.5 216 121.6 214.7 122.4C213.4 123.2 211.8 123.6 209.8 123.6C207.8 123.6 206.2 123.2 204.9 122.4C203.6 121.6 202.6 120.5 201.9 119C201.2 117.6 200.9 115.4 200.9 112.5V102.9H200.8ZM211 93.3999H215L209.5 99.0999H207L211 93.3999Z" fill="white"/>
<path d="M243.5 107.1L241.4 108.4C239.6 106 237.2 104.8 234.1 104.8C231.6 104.8 229.6 105.6 228 107.2C226.4 108.8 225.6 110.7 225.6 113C225.6 114.5 226 115.9 226.7 117.2C227.4 118.5 228.5 119.5 229.8 120.2C231.1 120.9 232.6 121.3 234.2 121.3C237.2 121.3 239.6 120.1 241.5 117.8L243.6 119.2C242.6 120.7 241.3 121.8 239.7 122.6C238.1 123.4 236.2 123.8 234.1 123.8C230.9 123.8 228.3 122.8 226.1 120.8C224 118.8 222.9 116.3 222.9 113.4C222.9 111.4 223.4 109.6 224.4 107.9C225.4 106.2 226.7 104.9 228.5 104C230.2 103.1 232.1 102.6 234.3 102.6C235.6 102.6 236.9 102.8 238.2 103.2C239.4 103.6 240.5 104.1 241.4 104.8C242.1 105.3 242.9 106.1 243.5 107.1Z" fill="white"/>
<path d="M247.7 95.1001H250.3V123.7H247.7V95.1001Z" fill="white"/>
<path d="M272.4 116.4L274.6 117.6C273.9 119 273.1 120.2 272.1 121C271.2 121.9 270.1 122.5 268.9 123C267.7 123.5 266.4 123.7 264.9 123.7C261.6 123.7 259 122.6 257.2 120.5C255.3 118.3 254.4 115.9 254.4 113.2C254.4 110.6 255.2 108.4 256.8 106.3C258.8 103.7 261.5 102.5 264.8 102.5C268.3 102.5 271 103.8 273.1 106.4C274.6 108.2 275.3 110.5 275.3 113.3H257C257.1 115.7 257.8 117.6 259.3 119.1C260.7 120.6 262.5 121.4 264.7 121.4C265.7 121.4 266.7 121.2 267.7 120.9C268.7 120.5 269.5 120.1 270.2 119.5C270.9 118.7 271.6 117.7 272.4 116.4ZM272.4 111C272.1 109.6 271.5 108.5 270.9 107.7C270.2 106.9 269.4 106.2 268.3 105.7C267.2 105.2 266.1 104.9 264.8 104.9C262.8 104.9 261.1 105.5 259.7 106.8C258.7 107.7 257.9 109.1 257.3 111H272.4Z" fill="white"/>
<path d="M289.3 102.4C292.4 102.4 295 103.5 297 105.8C298.9 107.9 299.8 110.3 299.8 113.1C299.8 115.9 298.8 118.4 296.9 120.5C294.9 122.6 292.4 123.7 289.3 123.7C286.2 123.7 283.7 122.6 281.7 120.5C279.7 118.4 278.8 115.9 278.8 113.1C278.8 110.3 279.7 107.9 281.6 105.8C283.6 103.5 286.2 102.4 289.3 102.4ZM289.3 104.9C287.1 104.9 285.3 105.7 283.7 107.3C282.1 108.9 281.4 110.8 281.4 113.1C281.4 114.6 281.8 115.9 282.5 117.2C283.2 118.5 284.2 119.4 285.4 120.1C286.6 120.8 287.9 121.1 289.4 121.1C290.8 121.1 292.2 120.8 293.4 120.1C294.6 119.4 295.6 118.4 296.3 117.2C297 115.9 297.4 114.6 297.4 113.1C297.4 110.8 296.6 108.9 295.1 107.3C293.3 105.7 291.4 104.9 289.3 104.9Z" fill="white"/>
<path d="M334.6 95.1001V123.7H332V119.7C330.9 121 329.7 122 328.3 122.7C327 123.4 325.5 123.7 323.9 123.7C321 123.7 318.6 122.7 316.6 120.6C314.6 118.5 313.6 116 313.6 113C313.6 110.1 314.6 107.6 316.7 105.5C318.8 103.4 321.2 102.4 324.1 102.4C325.8 102.4 327.3 102.8 328.6 103.5C329.9 104.2 331.1 105.3 332.1 106.7V95.1001H334.6ZM324.2 104.9C322.7 104.9 321.4 105.3 320.2 106C319 106.7 318 107.7 317.3 109C316.6 110.3 316.2 111.6 316.2 113.1C316.2 114.5 316.6 115.9 317.3 117.2C318 118.5 319 119.5 320.2 120.2C321.4 120.9 322.8 121.3 324.2 121.3C325.6 121.3 327 120.9 328.2 120.2C329.5 119.5 330.5 118.5 331.1 117.3C331.8 116.1 332.1 114.7 332.1 113.2C332.1 110.9 331.3 108.9 329.8 107.3C328.4 105.7 326.5 104.9 324.2 104.9Z" fill="white"/>
<path d="M357.2 116.4L359.4 117.6C358.7 119 357.8 120.2 356.9 121C356 121.9 354.9 122.5 353.7 123C352.5 123.5 351.2 123.7 349.7 123.7C346.4 123.7 343.8 122.6 342 120.5C340.1 118.3 339.2 115.9 339.2 113.2C339.2 110.6 340 108.4 341.6 106.3C343.6 103.7 346.3 102.5 349.6 102.5C353.1 102.5 355.8 103.8 357.9 106.4C359.4 108.2 360.1 110.5 360.1 113.3H341.9C341.9 115.7 342.7 117.6 344.1 119.1C345.6 120.6 347.3 121.4 349.5 121.4C350.5 121.4 351.5 121.2 352.5 120.9C353.5 120.5 354.3 120.1 355 119.5C355.6 118.7 356.4 117.7 357.2 116.4ZM357.2 111C356.9 109.6 356.3 108.5 355.7 107.7C355 106.9 354.2 106.2 353.1 105.7C352 105.2 350.9 104.9 349.6 104.9C347.6 104.9 345.9 105.5 344.5 106.8C343.5 107.7 342.7 109.1 342.1 111H357.2Z" fill="white"/>
<path d="M394.8 102.9V123.7H392.2V119.7C391.1 121 389.9 122 388.5 122.7C387.1 123.4 385.7 123.7 384 123.7C381.1 123.7 378.7 122.7 376.7 120.6C374.7 118.5 373.7 116 373.7 113C373.7 110.1 374.7 107.6 376.8 105.5C378.8 103.4 381.3 102.4 384.2 102.4C385.9 102.4 387.4 102.8 388.7 103.5C390 104.2 391.2 105.3 392.2 106.7V102.9H394.8ZM384.4 104.9C382.9 104.9 381.6 105.3 380.4 106C379.2 106.7 378.2 107.7 377.5 109C376.8 110.3 376.4 111.6 376.4 113.1C376.4 114.5 376.8 115.9 377.5 117.2C378.2 118.5 379.2 119.5 380.4 120.2C381.6 120.9 383 121.3 384.4 121.3C385.8 121.3 387.2 120.9 388.4 120.2C389.7 119.5 390.7 118.5 391.3 117.3C392 116.1 392.3 114.7 392.3 113.2C392.3 110.9 391.5 108.9 390 107.3C388.6 105.7 386.7 104.9 384.4 104.9Z" fill="white"/>
<path d="M400.3 102.9H402.9V106.7C403.9 105.3 405.1 104.2 406.4 103.5C407.7 102.8 409.2 102.4 410.9 102.4C413.8 102.4 416.2 103.4 418.3 105.5C420.3 107.6 421.4 110.1 421.4 113C421.4 116 420.4 118.5 418.4 120.6C416.4 122.7 413.9 123.7 411.1 123.7C409.5 123.7 408 123.4 406.7 122.7C405.4 122 404.1 121 403 119.7V130.6H400.4V102.9H400.3ZM410.7 104.9C408.4 104.9 406.6 105.7 405 107.3C403.5 108.9 402.7 110.8 402.7 113.2C402.7 114.7 403 116.1 403.7 117.3C404.4 118.5 405.4 119.5 406.7 120.2C408 120.9 409.3 121.3 410.7 121.3C412.1 121.3 413.4 120.9 414.6 120.2C415.8 119.5 416.8 118.5 417.5 117.2C418.2 115.9 418.6 114.5 418.6 113.1C418.6 111.7 418.2 110.3 417.5 109C416.8 107.7 415.8 106.7 414.6 106C413.5 105.3 412.2 104.9 410.7 104.9Z" fill="white"/>
<path d="M424.9 102.9H427.6V105.9C428.4 104.7 429.2 103.9 430.1 103.3C431 102.7 431.9 102.4 432.9 102.4C433.6 102.4 434.4 102.6 435.2 103.1L433.8 105.3C433.2 105.1 432.8 104.9 432.4 104.9C431.5 104.9 430.7 105.3 429.9 106C429.1 106.7 428.5 107.8 428.1 109.3C427.8 110.5 427.6 112.8 427.6 116.3V123.7H424.9V102.9Z" fill="white"/>
<path d="M454 116.4L456.2 117.6C455.5 119 454.6 120.2 453.7 121C452.8 121.9 451.7 122.5 450.5 123C449.3 123.5 448 123.7 446.5 123.7C443.2 123.7 440.6 122.6 438.8 120.5C436.9 118.3 436 115.9 436 113.2C436 110.6 436.8 108.4 438.4 106.3C440.4 103.7 443.1 102.5 446.4 102.5C449.9 102.5 452.6 103.8 454.7 106.4C456.2 108.2 456.9 110.5 456.9 113.3H438.7C438.8 115.7 439.5 117.6 441 119.1C442.4 120.6 444.2 121.4 446.4 121.4C447.4 121.4 448.4 121.2 449.4 120.9C450.4 120.5 451.2 120.1 451.9 119.5C452.4 118.7 453.2 117.7 454 116.4ZM454 111C453.6 109.6 453.1 108.5 452.5 107.7C451.8 106.9 451 106.2 449.9 105.7C448.8 105.2 447.7 104.9 446.5 104.9C444.5 104.9 442.8 105.5 441.4 106.8C440.4 107.7 439.6 109.1 439 111H454Z" fill="white"/>
<path d="M461.3 102.9H463.9V106.6C464.9 105.2 466.1 104.2 467.4 103.5C468.7 102.8 470 102.5 471.5 102.5C473 102.5 474.4 102.9 475.5 103.6C476.7 104.4 477.5 105.4 478.1 106.7C478.7 108 478.9 110 478.9 112.8V123.7H476.3V113.5C476.3 111.2 476.2 109.6 476 108.8C475.7 107.5 475.1 106.4 474.3 105.8C473.4 105.1 472.3 104.8 471 104.8C469.4 104.8 468 105.3 466.8 106.4C465.5 107.4 464.7 108.7 464.3 110.3C464.1 111.3 463.9 113.1 463.9 115.8V123.7H461.3V102.9Z" fill="white"/>
<path d="M504.3 95.1001V123.7H501.7V119.7C500.6 121 499.4 122 498 122.7C496.7 123.4 495.2 123.7 493.6 123.7C490.7 123.7 488.3 122.7 486.3 120.6C484.3 118.5 483.3 116 483.3 113C483.3 110.1 484.3 107.6 486.4 105.5C488.5 103.4 490.9 102.4 493.8 102.4C495.5 102.4 497 102.8 498.3 103.5C499.6 104.2 500.8 105.3 501.8 106.7V95.1001H504.3ZM493.9 104.9C492.4 104.9 491.1 105.3 489.9 106C488.7 106.7 487.7 107.7 487 109C486.3 110.3 485.9 111.6 485.9 113.1C485.9 114.5 486.3 115.9 487 117.2C487.7 118.5 488.7 119.5 489.9 120.2C491.1 120.9 492.4 121.3 493.9 121.3C495.3 121.3 496.7 120.9 497.9 120.2C499.2 119.5 500.2 118.5 500.8 117.3C501.5 116.1 501.8 114.7 501.8 113.2C501.8 110.9 501 108.9 499.5 107.3C498.1 105.7 496.2 104.9 493.9 104.9Z" fill="white"/>
<path d="M510.8 94.6001C511.4 94.6001 511.9 94.8001 512.3 95.2001C512.7 95.6001 512.9 96.1001 512.9 96.7001C512.9 97.3001 512.7 97.8001 512.3 98.2001C511.9 98.6001 511.4 98.8001 510.8 98.8001C510.2 98.8001 509.7 98.6001 509.3 98.2001C508.9 97.8001 508.7 97.3001 508.7 96.7001C508.7 96.1001 508.9 95.6001 509.3 95.2001C509.7 94.8001 510.2 94.6001 510.8 94.6001ZM509.5 102.9H512.1V123.7H509.5V102.9Z" fill="white"/>
<path d="M514.7 102.9H530.3L519.2 121.4H530.3V123.7H514.7L525.8 105.2H514.7V102.9Z" fill="white"/>
<path d="M553 102.9V123.7H550.4V119.7C549.3 121 548.1 122 546.7 122.7C545.4 123.4 543.9 123.7 542.3 123.7C539.4 123.7 537 122.7 535 120.6C533 118.5 532 116 532 113C532 110.1 533 107.6 535.1 105.5C537.1 103.4 539.6 102.4 542.5 102.4C544.2 102.4 545.7 102.8 547 103.5C548.3 104.2 549.5 105.3 550.5 106.7V102.9H553ZM542.6 104.9C541.2 104.9 539.8 105.3 538.6 106C537.4 106.7 536.4 107.7 535.7 109C535 110.3 534.6 111.6 534.6 113.1C534.6 114.5 535 115.9 535.7 117.2C536.4 118.5 537.4 119.5 538.6 120.2C539.8 120.9 541.1 121.3 542.6 121.3C544 121.3 545.4 120.9 546.6 120.2C547.9 119.5 548.9 118.5 549.5 117.3C550.2 116.1 550.5 114.7 550.5 113.2C550.5 110.9 549.7 108.9 548.2 107.3C546.8 105.7 544.9 104.9 542.6 104.9Z" fill="white"/>
<path d="M600.8 116.4L603 117.6C602.3 119 601.4 120.2 600.5 121C599.5 121.9 598.5 122.5 597.3 123C596.1 123.5 594.8 123.7 593.3 123.7C590 123.7 587.4 122.6 585.6 120.5C583.7 118.3 582.8 115.9 582.8 113.2C582.8 110.6 583.6 108.4 585.2 106.3C587.2 103.7 589.9 102.5 593.2 102.5C596.7 102.5 599.4 103.8 601.5 106.4C603 108.2 603.7 110.5 603.7 113.3H585.5C585.6 115.7 586.3 117.6 587.8 119.1C589.3 120.6 591 121.4 593.2 121.4C594.2 121.4 595.2 121.2 596.2 120.9C597.2 120.5 598 120.1 598.7 119.5C599.3 118.7 600 117.7 600.8 116.4ZM600.8 111C600.4 109.6 599.9 108.5 599.3 107.7C598.6 106.9 597.8 106.2 596.7 105.7C595.6 105.2 594.5 104.9 593.2 104.9C591.2 104.9 589.5 105.5 588.1 106.8C587.1 107.7 586.3 109.1 585.7 111H600.8Z" fill="white"/>
<path d="M608.1 102.9H610.7V106.4C611.6 105.1 612.5 104.2 613.5 103.6C614.8 102.8 616.2 102.4 617.7 102.4C618.7 102.4 619.6 102.6 620.5 103C621.4 103.4 622.1 103.9 622.7 104.5C623.3 105.1 623.7 106.1 624.2 107.2C625.1 105.6 626.1 104.4 627.4 103.6C628.7 102.8 630.1 102.4 631.6 102.4C633 102.4 634.2 102.8 635.3 103.5C636.4 104.2 637.2 105.2 637.7 106.5C638.2 107.8 638.5 109.7 638.5 112.2V123.8H635.8V112.2C635.8 110 635.6 108.5 635.3 107.7C635 106.9 634.5 106.2 633.7 105.7C633 105.2 632.1 105 631 105C629.7 105 628.6 105.4 627.5 106.1C626.4 106.8 625.7 107.8 625.2 109.1C624.7 110.3 624.5 112.4 624.5 115.3V123.7H621.9V112.8C621.9 110.4 621.7 108.7 621.4 107.8C621.1 106.9 620.6 106.2 619.8 105.7C619 105.2 618.1 104.9 617.1 104.9C615.9 104.9 614.8 105.3 613.7 106C612.7 106.7 611.9 107.7 611.4 108.9C610.9 110.1 610.6 112 610.6 114.5V123.6H608V102.9H608.1Z" fill="white"/>
<path d="M576 102.9V106.1C575.9 106 575.9 105.9 575.8 105.8C573.8 103.5 571.2 102.4 568.1 102.4C565 102.4 562.4 103.5 560.3 105.8C558.4 107.9 557.5 110.3 557.5 113.1C557.5 115.9 558.5 118.4 560.5 120.5C562.5 122.6 565 123.7 568.1 123.7C571.2 123.7 573.7 122.6 575.7 120.5C575.8 120.4 575.9 120.2 576 120.1V120.4C576 122.6 575.7 124.2 575.2 125.2C574.7 126.2 573.8 127 572.6 127.7C571.4 128.4 569.9 128.7 568.1 128.7C566.3 128.7 564.8 128.4 563.6 127.7C562.4 127.1 561.4 126.1 560.6 124.7H557.8C558.5 126.3 559.3 127.5 560.2 128.3C561.1 129.1 562.2 129.8 563.6 130.3C565 130.8 566.5 131 568.3 131C570.7 131 572.7 130.5 574.4 129.5C576.1 128.5 577.3 127.1 577.9 125.2C578.4 123.9 578.6 121.8 578.6 119V102.8H576V102.9ZM574.9 117.2C574.2 118.5 573.2 119.4 572 120.1C570.8 120.8 569.5 121.1 568 121.1C566.6 121.1 565.2 120.8 564 120.1C562.8 119.4 561.8 118.4 561.1 117.2C560.4 115.9 560 114.6 560 113.1C560 110.8 560.8 108.9 562.3 107.3C563.9 105.7 565.7 104.9 567.9 104.9C570 104.9 571.9 105.7 573.5 107.3C575.1 108.9 575.8 110.8 575.8 113.1C575.9 114.6 575.6 116 574.9 117.2Z" fill="white"/>
</g>
<defs>
<clipPath id="clip0">
<rect width="638.4" height="131.1" fill="white"/>
</clipPath>
</defs>
</svg>
